<svg width="282" height="95" viewBox="0 0 282 95" fill="none" xmlns="http://www.w3.org/2000/svg">
<path d="M0.892046 48.0227V41.8864L50.2898 16.7273V26.5455L12.3977 44.8011L12.7045 44.1875V45.7216L12.3977 45.108L50.2898 63.3636V73.1818L0.892046 48.0227ZM100.771 4.45454H110.282V60.6023C110.282 65.6136 109.362 69.8707 107.521 73.3736C105.68 76.8764 103.085 79.5355 99.7354 81.3509C96.386 83.1662 92.4357 84.0739 87.8846 84.0739C83.5891 84.0739 79.7667 83.294 76.4173 81.7344C73.0678 80.1491 70.4343 77.8991 68.5167 74.9844C66.5991 72.0696 65.6403 68.6051 65.6403 64.5909H74.9982C74.9982 66.8153 75.5479 68.7585 76.6474 70.4205C77.7724 72.0568 79.3065 73.3352 81.2496 74.2557C83.1928 75.1761 85.4045 75.6364 87.8846 75.6364C90.6204 75.6364 92.9471 75.0611 94.8647 73.9105C96.7823 72.7599 98.2397 71.0724 99.2369 68.848C100.26 66.598 100.771 63.8494 100.771 60.6023V4.45454ZM129.343 83V4.45454H176.44V12.892H138.855V39.4318H172.912V47.8693H138.855V83H129.343ZM219.27 0.772722L193.957 94.8125H185.673L210.986 0.772722H219.27ZM282.005 55.3864L232.607 80.5455V70.7273L270.499 52.4716L270.192 53.0852V51.5511L270.499 52.1648L232.607 33.9091V24.0909L282.005 49.25V55.3864Z" fill="white"/>
</svg>
